<?xml version="1.0" standalone="no"?>
<!DOCTYPE svg PUBLIC "-//W3C//DTD SVG 20010904//EN"
 "http://www.w3.org/TR/2001/REC-SVG-20010904/DTD/svg10.dtd">
<svg version="1.0" xmlns="http://www.w3.org/2000/svg"
 width="600.000000pt" height="600.000000pt" viewBox="0 0 600.000000 600.000000"
 preserveAspectRatio="xMidYMid meet">
<metadata>
Created by potrace 1.14, written by Peter Selinger 2001-2017
</metadata>
<g transform="translate(0.000000,600.000000) scale(0.100000,-0.100000)"
fill="#000000" stroke="none">
<path d="M5609 4984 c-13 -7 -69 -17 -124 -24 -55 -6 -128 -15 -162 -21 -34
-6 -162 -12 -285 -14 -234 -4 -472 -12 -523 -18 -40 -5 -69 -21 -88 -50 -17
-26 -17 -85 0 -95 7 -4 11 -16 10 -27 -1 -14 5 -21 23 -23 14 -2 30 -8 36 -13
5 -4 37 -11 70 -14 145 -15 164 -17 164 -25 0 -4 11 -11 25 -14 13 -3 29 -15
35 -26 6 -11 17 -20 25 -20 9 0 15 -9 15 -23 0 -13 5 -28 10 -33 6 -6 12 -26
14 -46 2 -19 6 -40 9 -45 4 -6 3 -13 -1 -17 -4 -4 -7 -56 -8 -115 0 -59 -3
-112 -7 -117 -3 -6 -8 -22 -11 -37 -2 -15 -7 -31 -11 -37 -3 -5 -2 -10 2 -10
15 0 13 -44 -4 -69 -11 -17 -13 -26 -5 -29 8 -2 9 -9 2 -22 -6 -11 -9 -23 -9
-27 1 -4 0 -15 -4 -23 -11 -30 -13 -80 -3 -80 8 0 8 -2 0 -8 -16 -11 -25 -42
-12 -42 7 0 6 -5 -2 -15 -7 -8 -10 -24 -7 -35 3 -11 1 -23 -4 -26 -5 -3 -9
-14 -9 -25 0 -10 -3 -19 -7 -19 -5 0 -9 -23 -10 -51 -1 -29 -7 -55 -14 -59 -6
-4 -8 -13 -5 -19 4 -6 1 -33 -8 -59 -8 -26 -17 -60 -19 -77 -3 -16 -12 -47
-20 -68 -9 -21 -14 -44 -11 -51 3 -7 -1 -20 -9 -28 -8 -8 -20 -50 -26 -94 -17
-110 -17 -114 -35 -163 -9 -24 -14 -47 -11 -51 3 -5 1 -10 -4 -12 -6 -1 -12
-24 -14 -51 -2 -26 -7 -50 -11 -54 -3 -3 -6 -16 -6 -28 0 -13 -11 -47 -24 -78
-14 -30 -27 -72 -30 -93 -3 -22 -17 -73 -30 -114 -38 -112 -75 -240 -82 -280
-4 -19 -15 -51 -24 -70 -10 -19 -21 -53 -25 -75 -4 -22 -11 -45 -17 -52 -5 -7
-7 -16 -4 -21 3 -5 -1 -24 -10 -41 -23 -45 -55 -42 -77 7 -9 21 -17 44 -17 50
0 7 -4 12 -8 12 -5 0 -17 27 -28 60 -13 43 -23 59 -33 55 -11 -4 -11 -3 -1 9
9 12 9 22 -4 47 -9 18 -16 40 -16 50 0 10 -4 21 -10 24 -5 3 -10 15 -10 26 0
10 -4 19 -10 19 -5 0 -10 11 -10 24 0 14 -4 27 -9 30 -5 3 -12 21 -15 40 -8
41 -43 123 -56 131 -5 3 -7 12 -4 19 3 8 0 17 -5 21 -6 3 -9 10 -6 15 4 7 -26
98 -109 325 -12 33 -24 65 -27 70 -6 10 -17 49 -19 70 -1 6 -7 21 -14 35 -7
14 -23 54 -34 90 -68 207 -115 347 -122 365 -10 25 -41 130 -44 147 -1 7 -4
18 -7 23 -19 32 -29 151 -14 175 4 7 11 26 16 44 48 194 84 264 191 374 31 32
10 48 -25 18 -15 -13 -27 -28 -27 -35 0 -6 -4 -11 -8 -11 -10 0 -92 -117 -92
-131 0 -5 -3 -9 -7 -9 -14 0 -34 -53 -23 -60 6 -4 3 -14 -9 -24 -11 -10 -17
-24 -14 -32 3 -8 0 -21 -6 -28 -8 -9 -8 -16 -2 -20 6 -4 4 -14 -7 -26 -34 -41
-48 -22 -77 100 -9 41 -23 89 -30 105 -7 17 -18 51 -25 78 -7 26 -16 50 -20
52 -5 3 -6 14 -3 25 3 11 -2 32 -12 46 -9 15 -18 36 -20 48 -3 23 -50 178 -64
211 -13 29 -40 125 -45 160 -6 33 -63 88 -83 81 -7 -3 -15 -1 -18 3 -9 16
-100 5 -141 -16 -25 -12 -43 -31 -49 -49 -5 -16 -14 -32 -20 -36 -5 -4 -6 -10
-3 -14 4 -3 1 -19 -7 -34 -7 -14 -16 -45 -18 -68 -3 -22 -9 -47 -13 -54 -5 -7
-10 -31 -11 -52 -2 -22 -8 -43 -14 -47 -6 -4 -13 -26 -15 -49 -4 -46 -19 -101
-39 -140 -7 -14 -16 -47 -20 -75 -10 -78 -26 -145 -35 -145 -4 0 -6 -8 -3 -19
3 -10 0 -22 -6 -25 -6 -4 -11 -17 -11 -29 0 -13 -9 -30 -20 -40 -12 -10 -18
-22 -15 -28 4 -5 1 -17 -6 -26 -8 -9 -14 -44 -14 -87 -1 -46 -9 -91 -23 -127
-11 -31 -24 -76 -27 -100 -12 -89 -14 -97 -38 -149 -6 -14 -12 -32 -12 -40 -2
-26 -16 -74 -27 -95 -6 -11 -15 -36 -20 -55 -5 -19 -13 -49 -17 -66 -5 -18 -4
-39 2 -49 7 -13 6 -16 -2 -11 -6 4 -11 4 -12 -1 -3 -27 -10 -70 -15 -82 -7
-22 -18 -4 -48 81 -15 42 -34 82 -42 89 -8 6 -14 22 -14 35 0 22 -183 264
-200 264 -4 0 -29 21 -56 48 -58 56 -138 122 -148 122 -4 0 -22 11 -39 24 -18
13 -72 43 -122 66 -49 23 -99 47 -110 53 -11 6 -51 18 -90 27 l-70 16 -11 59
c-6 33 -17 73 -23 88 -6 16 -21 83 -32 150 -12 67 -24 125 -28 130 -8 8 2 80
21 151 10 39 74 111 108 121 64 19 271 53 294 48 26 -5 40 -1 104 33 1 0 9 26
17 57 13 49 13 60 -1 92 -12 29 -20 36 -35 32 -10 -3 -19 -2 -19 1 0 8 -168 7
-500 -3 -349 -10 -375 -10 -610 11 -25 2 -76 6 -115 9 -38 3 -108 10 -155 15
-91 10 -303 23 -359 21 -55 -2 -88 -33 -93 -87 -3 -37 2 -53 21 -81 28 -38 62
-56 145 -73 31 -6 56 -16 56 -21 0 -6 5 -7 10 -4 11 7 90 -24 90 -36 0 -3 21
-14 46 -24 29 -11 67 -39 101 -73 58 -60 117 -141 109 -150 -3 -2 4 -16 14
-30 11 -13 20 -32 20 -41 0 -9 9 -34 20 -56 11 -22 20 -56 20 -76 0 -21 6 -44
13 -51 13 -12 25 -57 33 -116 1 -12 9 -36 17 -52 8 -16 18 -48 22 -70 6 -35 3
-45 -16 -66 -12 -13 -27 -24 -33 -24 -17 0 -225 -189 -226 -205 0 -6 -13 -25
-30 -43 -16 -18 -30 -38 -30 -43 0 -5 -16 -33 -35 -63 -20 -29 -37 -66 -38
-82 -1 -16 -8 -32 -16 -35 -8 -3 -16 -16 -18 -30 -2 -13 -10 -52 -19 -87 -8
-35 -14 -73 -12 -85 1 -12 -2 -29 -7 -37 -5 -8 -11 -85 -12 -170 -2 -141 0
-162 23 -240 14 -47 35 -103 46 -125 30 -58 89 -134 109 -140 9 -3 20 -16 23
-29 5 -22 86 -84 151 -115 17 -9 32 -18 35 -21 3 -3 39 -16 80 -28 122 -35
311 -47 345 -22 6 4 23 10 38 14 16 4 46 18 67 32 37 25 65 25 57 1 -2 -7 5
-27 15 -45 10 -18 18 -41 18 -52 0 -10 5 -22 10 -25 6 -3 10 -15 10 -25 0 -10
7 -26 16 -34 8 -9 12 -20 9 -26 -6 -10 9 -68 26 -102 5 -10 9 -25 9 -33 0 -8
4 -15 10 -15 5 0 7 -7 4 -15 -4 -9 -1 -30 6 -48 17 -44 49 -118 61 -139 5 -10
9 -31 9 -48 0 -16 4 -30 9 -30 4 0 11 -20 13 -44 3 -25 15 -56 26 -71 11 -14
23 -43 27 -65 4 -22 11 -42 16 -46 5 -3 9 -14 9 -25 0 -10 4 -27 9 -37 5 -9
17 -46 27 -82 10 -36 21 -69 24 -75 4 -5 10 -21 13 -35 7 -34 33 -103 63 -167
13 -30 24 -58 24 -62 0 -5 3 -11 8 -13 4 -1 15 -16 24 -33 16 -29 19 -30 85
-29 131 3 133 4 165 49 27 38 68 147 112 300 10 33 38 124 63 202 24 78 46
148 47 155 3 18 43 149 72 238 14 41 28 87 31 103 3 15 14 33 24 40 18 13 60
98 58 120 0 7 -9 -8 -20 -32 -11 -24 -22 -42 -25 -39 -5 6 34 161 59 238 13
37 64 219 72 255 1 6 7 23 14 39 11 27 28 87 67 235 8 30 18 60 23 65 4 6 13
31 20 56 8 25 22 72 32 105 10 33 25 87 33 120 8 33 21 80 30 105 9 25 23 71
31 102 70 263 84 298 118 298 12 0 67 -118 67 -144 0 -8 4 -17 9 -20 4 -3 11
-24 15 -47 4 -23 13 -54 21 -70 8 -15 15 -39 15 -52 0 -12 4 -27 8 -32 5 -6
21 -50 36 -100 15 -49 34 -108 41 -130 7 -22 16 -55 20 -73 4 -17 11 -32 16
-32 5 0 9 -13 9 -28 0 -15 4 -32 9 -37 5 -6 18 -41 29 -80 11 -38 28 -99 38
-135 11 -36 19 -76 19 -90 0 -14 5 -30 10 -36 6 -6 17 -31 24 -55 7 -24 16
-51 20 -59 4 -8 16 -42 25 -75 10 -33 25 -76 34 -95 8 -19 15 -39 14 -43 -1
-4 5 -21 13 -37 9 -17 13 -30 9 -30 -4 0 -2 -6 3 -12 12 -15 53 -149 53 -171
0 -8 7 -20 15 -27 8 -7 15 -22 15 -35 0 -12 3 -25 8 -29 4 -4 7 -11 8 -14 0
-4 8 -24 17 -46 9 -21 17 -44 17 -50 0 -6 7 -21 15 -32 8 -12 12 -23 10 -26
-8 -7 16 -68 26 -68 5 0 9 -13 9 -29 0 -17 5 -33 10 -36 6 -3 10 -19 10 -35 0
-16 6 -35 13 -42 13 -13 47 -110 47 -134 0 -8 4 -14 9 -14 5 0 12 -16 16 -36
3 -20 19 -70 35 -111 16 -40 31 -88 35 -106 7 -35 10 -44 48 -127 16 -36 36
-61 56 -73 17 -10 31 -15 31 -11 0 3 6 2 13 -4 27 -21 108 -24 151 -6 47 21
96 66 96 89 0 9 11 43 25 76 15 34 23 69 20 80 -4 10 -2 19 4 19 6 0 13 12 17
28 3 15 12 41 19 57 7 17 21 57 30 90 24 84 65 206 77 232 6 11 8 26 4 31 -3
6 -1 14 5 17 5 4 8 13 5 20 -2 7 6 39 19 71 13 33 25 73 27 89 2 17 10 40 17
53 7 13 10 30 7 37 -9 23 27 28 46 6 9 -12 19 -21 23 -21 3 0 11 -4 18 -10 70
-57 79 -62 89 -52 7 7 -2 18 -31 36 -22 15 -41 31 -41 36 0 6 -6 10 -13 10 -7
0 -26 13 -42 30 l-28 30 19 55 c10 31 21 61 25 66 3 6 35 0 82 -16 41 -14 86
-25 100 -25 13 0 27 -3 30 -6 10 -11 67 -13 73 -3 3 5 14 4 26 -2 16 -9 24 -7
36 5 15 15 11 16 -48 15 -81 -1 -134 11 -248 56 -36 15 -42 21 -36 39 4 11 17
56 29 98 20 69 21 77 6 81 -10 3 -8 5 7 6 18 1 22 7 22 32 0 17 5 39 11 51 6
11 13 31 15 45 3 14 13 42 24 63 11 21 17 40 14 43 -3 3 -1 13 4 24 5 10 15
34 22 53 6 19 23 66 36 103 13 38 24 82 24 97 0 16 4 31 9 35 6 3 22 45 37 93
14 48 30 96 35 107 4 11 13 38 18 60 6 22 17 49 25 60 9 11 16 27 16 36 0 9
14 57 30 107 17 50 30 101 30 112 0 11 4 28 9 38 17 34 50 128 56 162 8 47 32
131 60 210 12 36 33 99 45 140 12 41 31 104 42 140 11 36 22 80 25 99 3 19 11
41 19 48 8 8 14 21 14 28 0 19 21 66 92 207 47 94 71 129 119 175 33 32 70 63
82 69 50 27 171 74 189 74 68 0 119 91 94 167 -15 47 -86 78 -146 64 -19 -4
-49 -4 -66 -1 -19 4 -41 2 -55 -6z m134 -58 c3 -8 2 -29 -3 -45 -5 -17 -6 -31
-3 -31 3 0 0 -6 -6 -14 -9 -11 -8 -15 5 -20 9 -4 18 -5 18 -4 12 21 26 63 26
79 0 26 25 35 45 16 21 -22 9 -73 -24 -96 -14 -10 -44 -19 -66 -19 -22 -1 -49
-3 -60 -4 -19 -3 -20 2 -16 67 1 39 5 73 8 78 8 13 71 8 76 -7z m-133 -6 c0
-11 0 -10 11 -57 5 -26 2 -39 -14 -59 -16 -21 -17 -28 -6 -34 11 -8 11 -10 -1
-13 -8 -2 -31 -9 -51 -16 -54 -17 -65 -14 -43 10 14 16 19 37 19 85 1 51 4 66
20 78 23 17 65 21 65 6z m-5210 -15 c0 -3 -21 -25 -47 -50 -74 -70 -123 -74
-123 -11 0 49 28 66 107 66 35 0 63 -2 63 -5z m4975 -67 c1 -24 -5 -55 -12
-69 -7 -15 -15 -44 -19 -66 -7 -45 -17 -61 -62 -92 -34 -24 -54 -22 -34 2 12
15 43 118 47 157 1 14 3 46 3 71 2 37 6 48 25 56 31 15 50 -6 52 -59z m79 66
c9 -3 16 -17 16 -30 0 -13 3 -24 8 -24 11 0 8 -53 -6 -77 -7 -12 -12 -28 -12
-35 0 -22 -14 -36 -44 -44 -28 -7 -29 -6 -22 27 4 19 9 63 11 99 6 92 11 99
49 84z m-554 -21 c41 0 83 4 92 8 10 5 19 5 23 0 3 -5 20 -8 38 -5 17 2 69 6
115 7 l82 3 0 -33 c0 -17 4 -43 10 -57 6 -17 6 -27 -1 -32 -6 -3 -8 -13 -4
-21 3 -9 -2 -27 -10 -40 -9 -13 -15 -29 -13 -36 4 -18 -27 -89 -51 -116 -11
-13 -18 -27 -15 -32 9 -15 -30 -58 -53 -59 -15 0 -33 -14 -52 -42 -16 -24 -36
-50 -43 -58 -7 -9 -19 -28 -27 -43 -8 -15 -18 -27 -23 -27 -4 0 -8 -7 -8 -15
0 -8 -5 -15 -11 -15 -6 0 -9 -7 -5 -15 3 -8 1 -15 -5 -15 -6 0 -9 -6 -6 -14 3
-8 -2 -16 -13 -19 -18 -5 -19 2 -17 144 l2 149 24 0 c33 0 85 34 101 67 8 15
22 37 31 48 19 23 36 125 21 125 -5 0 -12 9 -15 20 -6 25 -63 50 -97 43 -61
-11 -91 -123 -34 -123 18 0 27 9 38 34 8 18 19 37 25 40 12 8 61 -40 61 -59 0
-16 -36 -95 -54 -117 -16 -21 -83 -51 -96 -43 -5 3 -21 27 -35 53 -28 50 -96
109 -142 121 -34 9 -39 29 -23 88 17 58 44 93 69 86 10 -3 22 1 26 7 5 7 10 8
14 3 3 -6 40 -10 81 -10z m-4406 -14 c-37 -41 -144 -120 -154 -114 -18 11 -11
31 21 59 53 48 101 76 127 76 25 0 25 0 6 -21z m279 5 l39 -6 -29 -18 c-16
-10 -40 -21 -54 -25 -23 -7 -120 -81 -127 -97 -2 -5 -9 -8 -15 -8 -6 0 -20 -9
-31 -19 -21 -19 -22 -19 -74 5 l-54 24 22 30 c33 46 135 110 195 123 21 4 65
1 128 -9z m2448 -6 c47 -45 49 -102 5 -110 -14 -3 -29 -1 -33 3 -5 5 -14 4
-21 0 -10 -6 -1 -14 29 -29 23 -12 46 -19 50 -16 11 6 64 -77 60 -95 -1 -8 2
-24 7 -35 5 -12 15 -40 22 -63 7 -24 16 -43 19 -43 5 0 6 -40 2 -69 0 -4 -18
-11 -38 -14 -21 -2 -45 -6 -53 -8 -11 -3 -15 4 -15 24 1 37 -11 34 -25 -8 -14
-43 -84 -93 -126 -90 -16 1 -39 3 -51 3 -37 3 -80 48 -92 97 -10 38 -8 58 10
128 29 116 42 138 96 169 27 15 57 33 68 42 19 14 18 14 -17 12 -20 -2 -49
-11 -63 -20 -24 -16 -25 -16 -25 4 0 26 33 92 54 109 18 15 70 29 100 27 11 0
28 -9 37 -18z m1473 -16 c-8 -15 -14 -33 -14 -40 0 -7 -5 -10 -11 -6 -8 5 -10
-6 -7 -34 4 -49 -2 -53 -68 -41 -27 5 -56 11 -66 12 -42 7 -67 68 -42 102 13
17 32 22 129 33 86 10 96 7 79 -26z m-2746 9 c62 -1 63 -1 78 -36 14 -35 14
-36 -20 -70 -20 -19 -41 -35 -48 -35 -7 -1 -58 -2 -112 -4 -113 -3 -115 -2
-153 84 l-22 49 32 6 c42 7 103 10 147 9 19 -1 63 -2 98 -3z m-892 -63 c3 -10
14 -23 25 -29 12 -6 18 -17 15 -24 -3 -8 3 -24 12 -37 34 -44 75 -157 70 -191
-2 -18 -9 -22 -38 -20 -35 2 -140 -27 -192 -53 -14 -8 -35 -14 -46 -14 -10 0
-31 -9 -45 -20 -14 -11 -30 -20 -37 -20 -14 0 -49 40 -50 57 0 6 -3 13 -7 15
-14 6 -83 114 -83 130 0 40 174 148 261 161 34 5 39 2 71 -41 19 -26 43 -72
53 -102 29 -90 34 -100 50 -100 24 0 18 37 -17 109 -42 88 -101 174 -132 195
-14 9 -26 21 -26 25 0 32 104 -5 116 -41z m141 43 c29 -2 133 -108 133 -137 0
-11 4 -24 9 -30 15 -16 37 -92 40 -141 1 -7 5 -13 11 -13 12 0 5 108 -10 156
-13 37 -20 49 -51 82 -9 9 -24 30 -34 45 -16 24 -16 30 -4 38 8 5 20 9 27 9
16 0 72 -57 72 -72 0 -5 9 -17 20 -26 12 -10 24 -36 28 -61 8 -48 36 -77 51
-52 5 8 0 35 -15 72 -27 67 -28 69 -13 69 5 0 19 -20 30 -45 13 -30 28 -47 44
-51 22 -5 23 -8 12 -32 -16 -36 -35 -50 -63 -44 -22 4 -24 2 -18 -29 3 -19 7
-39 9 -45 2 -7 -7 -22 -21 -35 -23 -22 -26 -22 -93 -9 -38 7 -82 10 -97 7 -41
-7 -61 7 -62 44 -1 55 -23 126 -48 160 -13 18 -24 38 -24 44 0 6 -16 26 -35
45 -52 52 -47 62 28 56 34 -2 67 -5 74 -5z m412 3 c19 -4 31 -13 31 -22 0 -8
7 -23 15 -32 8 -9 16 -25 18 -36 1 -10 6 -25 11 -32 11 -18 10 -18 -56 -29
-49 -8 -60 -7 -73 7 -8 9 -15 22 -15 28 0 7 -7 12 -15 12 -8 0 -19 17 -25 41
-6 22 -14 47 -17 55 -4 11 5 14 45 14 27 0 64 -3 81 -6z m-705 -20 c9 -3 16
-14 16 -23 0 -16 -25 -30 -96 -55 -30 -11 -96 -59 -135 -100 -28 -30 -73 -29
-106 2 -21 19 -24 26 -13 30 8 2 31 19 50 38 77 73 227 130 284 108z m4606
-134 c0 -5 -5 -10 -11 -10 -5 0 -7 5 -4 10 3 6 8 10 11 10 2 0 4 -4 4 -10z
m-35 -10 c11 -18 -6 -50 -36 -65 -16 -9 -29 -22 -29 -29 0 -7 -7 -19 -15 -26
-8 -6 -21 -35 -29 -65 -9 -29 -23 -58 -31 -65 -8 -7 -15 -18 -15 -26 0 -7 -9
-16 -20 -19 -11 -4 -18 -11 -15 -16 7 -11 -32 -69 -46 -69 -22 0 -92 -60 -94
-80 -1 -9 -55 -60 -64 -60 -7 0 -25 -31 -31 -55 -1 -5 -13 -23 -26 -38 -13
-16 -24 -38 -24 -50 0 -11 -9 -31 -21 -43 -11 -12 -22 -34 -23 -48 -2 -15 -11
-35 -20 -45 -10 -11 -19 -25 -20 -33 -2 -7 -6 -21 -11 -31 -4 -10 -5 -20 -2
-24 4 -3 -1 -19 -9 -34 -8 -16 -15 -46 -16 -67 0 -20 -4 -42 -9 -48 -7 -9 -11
-52 -10 -124 1 -13 -3 -28 -8 -33 -10 -10 -3 -38 12 -49 7 -4 4 -16 -7 -33
-16 -24 -16 -29 -2 -49 11 -18 12 -26 3 -35 -9 -9 -9 -14 -1 -19 9 -5 9 -23 1
-65 -8 -44 -8 -64 1 -78 6 -10 9 -25 6 -34 -4 -8 0 -22 7 -31 11 -14 10 -15
-11 -12 -21 2 -27 12 -38 58 -7 30 -14 62 -17 70 -2 8 -4 23 -4 33 -1 9 -9 17
-18 17 -14 0 -15 2 -5 9 11 7 12 22 4 77 -14 108 0 256 37 379 5 17 12 50 15
75 16 127 66 284 137 426 39 79 74 144 78 144 3 0 57 49 119 109 63 59 132
118 155 131 23 12 59 31 80 42 20 11 40 24 43 29 7 12 21 11 29 -1z m-4095
-224 c53 -10 67 -24 74 -78 4 -29 9 -63 12 -74 6 -22 5 -22 -141 -16 -92 3
-160 1 -183 -6 -20 -6 -66 -17 -102 -24 -36 -7 -76 -23 -91 -35 -43 -37 -71
-30 -91 20 -10 23 -18 52 -18 64 0 27 59 77 114 97 23 8 61 22 86 32 67 24
135 33 235 28 50 -3 97 -6 105 -8z m1998 -98 c19 -19 15 -24 -30 -42 -97 -40
-128 -56 -128 -67 0 -6 -9 -9 -19 -6 -21 5 -56 -24 -44 -36 3 -4 -3 -7 -14 -7
-11 0 -27 -8 -36 -17 -46 -50 -56 -63 -51 -63 4 0 1 -7 -6 -15 -7 -8 -21 -15
-32 -15 -10 0 -16 -4 -13 -10 5 -9 -10 -49 -24 -60 -3 -3 -14 -22 -23 -42 -13
-28 -14 -38 -5 -38 7 0 4 -7 -7 -15 -11 -8 -16 -21 -13 -30 4 -8 2 -15 -3 -15
-17 0 -27 -44 -35 -165 -7 -93 -7 -90 1 -131 4 -21 1 -34 -10 -43 -14 -11 -16
-11 -16 3 0 11 -5 14 -12 10 -7 -4 -8 -3 -4 4 10 16 -4 61 -18 56 -13 -5 -13
-65 0 -86 5 -7 7 -23 5 -36 -1 -13 2 -28 7 -35 18 -22 17 -64 -2 -86 -10 -11
-16 -27 -13 -36 4 -8 1 -15 -5 -15 -6 0 -8 -11 -5 -29 4 -20 0 -34 -14 -50
l-20 -21 -33 25 c-18 14 -38 25 -44 25 -33 0 -48 157 -22 234 10 28 23 76 30
106 7 30 15 60 19 65 3 6 6 15 6 20 3 30 18 86 26 91 5 3 9 18 9 34 0 16 6 44
14 62 7 18 21 62 30 98 34 132 47 186 55 224 5 21 18 47 29 58 24 24 105 36
126 19 12 -11 10 -18 -19 -48 -18 -19 -31 -42 -28 -49 4 -10 0 -12 -13 -7 -13
5 -16 3 -11 -9 3 -10 -4 -25 -18 -38 -14 -13 -22 -27 -19 -31 3 -5 0 -9 -5 -9
-6 0 -11 -7 -11 -15 0 -9 -6 -18 -14 -21 -8 -3 -17 -12 -20 -19 -3 -9 0 -12
10 -8 7 3 14 1 14 -3 0 -14 -14 -31 -30 -37 -10 -3 -6 -6 9 -6 l24 -1 -23 -24
c-13 -15 -20 -32 -17 -40 4 -9 2 -16 -3 -16 -6 0 -10 -7 -10 -15 0 -8 5 -15
12 -15 7 0 6 -5 -4 -12 -14 -12 -19 -25 -34 -98 -6 -30 -5 -123 2 -129 9 -9
24 23 20 41 -2 10 0 21 6 24 5 3 7 16 4 28 -3 11 1 44 9 71 7 28 22 78 31 113
10 35 21 65 25 68 5 2 6 11 2 20 -3 8 1 22 9 32 9 9 32 51 52 92 31 62 48 83
99 121 75 56 125 83 197 108 66 23 82 25 98 9z m29 -82 c-3 -8 -18 -33 -34
-57 -71 -106 -83 -125 -93 -146 -26 -58 -33 -79 -31 -92 2 -9 -3 -12 -14 -7
-10 3 -14 2 -10 -5 4 -5 1 -17 -6 -25 -10 -13 -10 -17 2 -25 12 -7 12 -9 -1
-9 -19 0 -42 -47 -28 -57 7 -4 4 -11 -7 -19 -12 -9 -18 -28 -19 -61 0 -26 -7
-54 -14 -62 -11 -12 -11 -15 0 -22 10 -7 10 -9 1 -9 -15 0 -17 -38 -4 -59 11
-18 24 1 28 44 1 16 7 46 13 65 44 153 53 181 61 186 5 3 9 12 9 20 0 7 14 43
30 77 17 35 30 67 30 70 0 9 90 127 96 127 32 0 38 -81 10 -124 -15 -23 -16
-30 -5 -37 8 -5 10 -9 4 -9 -14 0 -55 -63 -55 -84 0 -9 -9 -36 -20 -58 -11
-23 -20 -55 -20 -70 0 -16 -9 -46 -19 -66 -11 -21 -20 -60 -22 -87 -1 -28 -6
-55 -10 -60 -4 -6 -6 -28 -4 -50 1 -22 -1 -48 -6 -57 -7 -13 -6 -18 3 -18 8 0
9 -3 1 -11 -6 -6 -7 -26 -4 -47 4 -20 6 -70 5 -110 -1 -44 3 -75 10 -80 6 -4
18 -16 26 -26 14 -18 13 -19 -2 -13 -13 5 -18 1 -18 -12 0 -11 -3 -26 -6 -34
-3 -8 2 -21 10 -30 8 -8 13 -17 10 -20 -3 -2 -2 -16 1 -30 5 -17 12 -24 21
-20 8 3 14 0 14 -6 0 -6 -4 -11 -10 -11 -5 0 -10 -4 -10 -10 0 -5 8 -6 18 -3
15 6 15 4 4 -9 -11 -14 -11 -24 -1 -58 12 -39 14 -41 26 -24 8 11 17 19 21 19
4 0 6 3 5 7 -1 3 -5 21 -8 40 -3 18 -10 37 -16 43 -5 5 -9 24 -9 43 0 18 -5
42 -11 53 -6 11 -11 34 -11 50 -1 16 -5 32 -10 35 -5 3 -6 25 -2 49 3 24 2 49
-2 57 -8 13 -8 226 1 285 6 45 53 226 66 260 27 67 85 183 91 183 16 0 2 -48
-24 -78 -33 -38 -32 -36 -12 -68 9 -13 14 -27 11 -30 -3 -3 3 -34 13 -70 l19
-64 -24 0 c-25 0 -90 -49 -67 -50 9 0 11 -7 7 -21 -4 -13 -1 -27 10 -39 9 -10
14 -24 10 -30 -4 -6 5 -22 20 -36 14 -13 23 -24 20 -24 -3 0 1 -10 9 -22 22
-32 20 -38 -13 -38 -36 0 -63 -37 -53 -71 10 -35 35 -69 49 -69 7 0 13 -5 13
-12 0 -6 11 -26 25 -44 28 -37 31 -49 11 -41 -23 9 -76 -15 -76 -35 0 -30 19
-68 35 -68 8 0 15 -5 15 -12 0 -7 20 -31 46 -55 45 -43 45 -43 17 -43 -33 0
-43 -7 -61 -39 -13 -21 -11 -26 19 -57 36 -37 49 -42 49 -19 0 8 -4 15 -9 15
-17 0 -24 42 -10 51 51 32 150 -31 140 -90 -1 -7 2 -10 8 -6 6 3 11 4 11 1 0
-2 3 -11 6 -20 4 -11 0 -16 -13 -16 -26 0 -96 -68 -86 -83 4 -7 8 -14 9 -17 4
-23 18 -38 30 -33 8 3 14 1 14 -4 0 -9 57 -33 78 -33 7 0 12 5 12 11 0 5 -4 8
-9 4 -5 -3 -12 -1 -15 4 -3 5 -18 12 -33 16 -48 12 -72 68 -33 78 38 10 102
-5 107 -24 3 -11 11 -19 18 -19 8 0 16 -13 20 -30 4 -16 11 -30 16 -30 6 0 7
-5 3 -11 -3 -6 -17 -8 -30 -5 -18 5 -24 2 -24 -9 0 -9 5 -13 10 -10 20 12 10
-12 -15 -35 -23 -21 -23 -24 -9 -51 9 -18 32 -36 62 -49 26 -11 59 -26 73 -34
20 -10 29 -11 42 -1 14 10 9 14 -36 24 -82 19 -138 81 -86 94 40 11 83 -5 112
-39 32 -38 48 -44 40 -14 -3 11 -12 20 -20 20 -8 0 -11 5 -8 10 3 6 -1 13 -9
16 -9 3 -16 12 -16 20 0 8 -18 33 -40 56 -43 43 -100 123 -100 138 0 5 -11 21
-25 36 -14 15 -24 32 -22 38 3 6 -2 19 -11 28 -17 20 -60 117 -71 163 -4 17
-13 41 -20 54 -8 13 -10 37 -7 56 4 20 2 35 -4 37 -6 2 -13 26 -15 53 -2 28
-8 64 -14 82 -5 17 -7 34 -4 36 3 3 4 38 3 79 -1 40 -1 78 -1 83 4 63 7 95 12
99 11 12 58 -104 66 -164 3 -19 18 -62 34 -96 16 -33 29 -68 29 -77 0 -9 5
-19 10 -22 6 -4 8 -10 5 -15 -3 -4 2 -13 9 -20 8 -6 18 -26 22 -43 3 -18 9
-36 12 -42 4 -5 8 -21 10 -35 2 -13 8 -27 13 -31 6 -3 11 -17 13 -30 1 -14 5
-29 8 -34 3 -6 9 -28 13 -50 4 -22 16 -51 25 -65 10 -14 30 -63 44 -110 25
-79 54 -162 79 -220 6 -14 10 -29 9 -33 -1 -4 3 -17 9 -29 10 -18 9 -20 -5
-15 -12 5 -19 -1 -26 -18 -5 -14 -13 -25 -18 -25 -4 0 -13 -12 -20 -27 -7 -16
-19 -39 -26 -52 -16 -27 -4 -67 16 -55 5 4 14 1 18 -6 5 -8 33 -13 71 -14 54
-2 64 -5 72 -24 6 -12 14 -22 19 -22 5 0 7 -4 3 -10 -3 -5 -1 -17 4 -27 15
-27 30 -81 25 -86 -3 -3 -17 -1 -32 3 -15 5 -52 14 -82 21 -30 6 -68 22 -83
35 -16 13 -37 24 -47 24 -10 0 -27 11 -38 25 -11 14 -23 25 -27 25 -10 0 -75
71 -75 82 0 6 -7 8 -15 4 -9 -3 -15 0 -15 9 0 8 -4 15 -10 15 -5 0 -10 -5 -10
-11 0 -5 -5 -7 -12 -3 -9 6 -9 9 0 12 18 6 15 22 -4 22 -9 0 -14 6 -12 12 3 7
-17 40 -42 73 -26 34 -51 72 -55 85 -7 24 -15 35 -47 71 -10 10 -18 25 -18 32
0 7 -7 23 -16 35 -8 12 -17 32 -19 43 -2 12 -10 31 -18 43 -8 11 -20 42 -28
69 -15 51 -23 57 -39 28 -17 -32 -12 -54 33 -159 51 -119 64 -137 83 -121 10
8 14 8 14 0 0 -6 -4 -11 -10 -11 -18 0 -10 -29 9 -35 11 -3 18 -12 15 -19 -5
-13 29 -79 53 -104 7 -7 13 -19 13 -26 0 -7 11 -19 25 -26 14 -7 25 -19 25
-27 0 -7 6 -13 14 -13 7 0 33 -18 57 -40 24 -22 47 -40 50 -40 4 0 9 -8 11
-17 4 -16 -4 -18 -65 -20 l-70 -2 -61 62 c-138 140 -172 193 -216 337 -12 41
-25 80 -29 85 -3 6 -6 12 -7 15 -6 36 -38 120 -45 120 -6 0 -7 5 -4 10 6 10
-3 42 -60 221 -14 42 -25 83 -25 92 0 8 -4 17 -9 19 -5 2 -13 32 -16 68 -4 36
-12 68 -18 72 -9 5 -9 10 1 20 17 17 15 28 -5 28 -14 0 -14 2 2 20 10 11 13
20 7 20 -8 0 -7 10 2 31 14 34 11 69 -7 69 -5 0 -2 9 8 20 10 11 13 20 7 20
-17 0 -32 -34 -32 -72 0 -27 -17 -76 -21 -58 0 3 -2 12 -5 20 -48 181 -85 232
-152 209 -22 -9 -22 -8 -18 54 4 56 37 167 56 192 5 6 17 34 28 62 11 29 31
65 45 80 14 16 40 45 58 66 45 54 103 91 179 115 36 11 72 23 80 26 26 8 32 6
27 -8z m-1969 -21 c13 -3 20 -10 17 -15 -4 -7 -210 -5 -245 3 -3 0 -30 -3 -60
-8 -30 -5 -61 -9 -68 -9 -7 -1 -16 -6 -20 -12 -11 -16 -37 -23 -52 -14 -9 6
-6 10 11 15 13 3 33 11 44 16 56 27 297 43 373 24z m3802 -35 c0 -6 -8 -25
-17 -43 -9 -18 -18 -45 -19 -62 -1 -16 -10 -50 -21 -75 -10 -25 -18 -52 -18
-60 1 -8 -3 -24 -9 -35 -6 -11 -9 -27 -7 -34 1 -8 -5 -20 -14 -27 -9 -7 -18
-29 -21 -50 -3 -21 -10 -42 -17 -46 -6 -4 -8 -10 -4 -14 4 -4 -1 -16 -10 -26
-14 -15 -14 -21 -4 -27 10 -6 9 -12 -4 -25 -9 -9 -14 -23 -11 -32 4 -10 0 -14
-12 -12 -14 3 -17 -5 -17 -46 -1 -35 -6 -52 -20 -62 -10 -8 -15 -17 -10 -21 4
-5 10 -2 12 5 3 6 10 12 16 12 6 0 0 -11 -12 -24 -12 -13 -22 -30 -21 -37 3
-20 -11 -59 -20 -59 -4 0 -10 -7 -13 -14 -4 -11 -1 -13 11 -10 15 5 15 4 1 -8
-23 -19 -42 -58 -29 -58 6 0 3 -11 -7 -24 l-18 -24 -7 25 c-4 14 -7 63 -8 109
-1 46 -1 90 -1 97 -1 43 35 247 51 282 4 11 19 52 33 90 40 111 100 215 164
282 55 58 83 76 83 53z m-3850 -14 c36 -3 68 -6 72 -6 16 0 39 -50 45 -95 5
-43 4 -47 -13 -37 -12 7 -25 7 -40 0 -30 -14 -36 -32 -19 -54 11 -16 18 -17
48 -7 27 8 39 8 46 -1 15 -18 18 -72 4 -63 -5 3 -62 8 -128 12 -66 3 -121 8
-123 10 -2 1 -20 -2 -40 -7 -20 -5 -66 -13 -102 -19 -87 -12 -89 -13 -132 -34
-42 -21 -44 -20 -53 18 -7 25 -5 27 23 27 36 0 53 18 45 48 -6 25 -35 29 -53
7 -7 -8 -18 -15 -26 -15 -15 0 -37 70 -32 103 6 44 141 107 229 107 19 0 41 5
49 10 14 8 35 8 200 -4z m2194 -241 c-4 -8 -11 -15 -16 -15 -6 0 -5 6 2 15 7
8 14 15 16 15 2 0 1 -7 -2 -15z m-2168 -49 c73 5 96 4 122 -10 19 -10 29 -21
26 -30 -3 -8 0 -17 5 -21 6 -3 9 -10 6 -15 -3 -5 3 -29 14 -53 11 -25 25 -62
30 -83 6 -22 20 -73 32 -114 12 -41 22 -85 22 -97 -1 -13 3 -23 8 -23 5 0 9
-4 9 -10 0 -19 -22 -10 -58 25 -20 19 -40 35 -43 35 -3 0 -24 14 -45 31 -55
44 -151 85 -203 88 -24 1 -54 7 -65 13 -12 6 -75 14 -141 17 l-120 6 -18 70
c-17 69 -17 70 2 86 23 19 85 40 191 64 41 10 84 21 95 25 11 4 25 4 31 -1 6
-5 51 -6 100 -3z m2110 -4 c-3 -5 1 -30 9 -56 14 -45 12 -76 -5 -76 -9 0 -33
56 -33 79 0 9 -4 19 -9 22 -15 10 3 39 24 39 10 0 17 -4 14 -8z m-1825 -42
c70 -23 67 -22 189 -78 106 -49 305 -194 305 -221 0 -4 24 -30 53 -59 28 -28
52 -55 52 -61 0 -5 3 -11 8 -13 10 -4 62 -86 62 -98 0 -5 3 -10 8 -10 10 0 42
-58 42 -76 0 -8 9 -32 20 -54 11 -22 20 -47 20 -57 0 -10 11 -40 24 -66 24
-48 24 -75 1 -130 -7 -17 -9 -27 -14 -74 -2 -26 -19 -12 -25 22 -4 19 -16 41
-26 48 -11 8 -18 16 -15 19 8 7 -19 54 -49 89 -15 16 -24 33 -22 38 3 4 -5 14
-19 21 -13 7 -21 18 -19 24 5 14 -33 52 -42 43 -4 -4 1 -17 10 -29 9 -13 31
-46 50 -74 19 -29 39 -55 45 -59 6 -3 9 -11 6 -16 -4 -5 1 -21 9 -36 8 -16 17
-35 20 -43 4 -8 17 -33 31 -55 29 -48 26 -84 -16 -167 -5 -10 -6 -25 -2 -34 4
-10 0 -21 -9 -28 -8 -6 -18 -32 -21 -58 -4 -26 -11 -56 -16 -65 -14 -25 -45
-124 -47 -148 0 -11 -8 -40 -16 -65 -9 -25 -19 -58 -24 -75 -9 -37 -8 -34 -22
-68 -7 -16 -17 -50 -24 -75 -18 -76 -64 -106 -86 -57 -15 33 -86 270 -113 380
-6 22 -15 42 -21 46 -6 4 -12 28 -14 54 -3 25 -10 61 -18 78 -7 18 -16 50 -20
72 -4 21 -14 51 -21 65 -7 14 -16 42 -19 63 -3 20 -17 72 -31 115 -44 138 -89
287 -90 302 0 9 -4 20 -7 25 -3 6 -11 44 -18 85 -7 41 -16 80 -21 85 -4 6 -11
30 -15 53 -4 23 -10 42 -14 42 -5 0 -7 7 -6 16 1 9 -6 46 -17 83 -11 36 -21
77 -23 91 -2 14 -12 61 -23 105 -20 77 -25 105 -18 105 2 0 33 -9 68 -20z
m-753 -82 c1 -21 42 -169 62 -230 11 -31 27 -92 36 -135 9 -43 20 -83 25 -90
13 -14 -3 -22 -76 -38 -22 -5 -105 -48 -105 -54 0 -4 -14 -15 -31 -25 -17 -10
-28 -24 -26 -30 3 -7 -10 -26 -29 -42 -19 -17 -34 -39 -34 -51 0 -13 -6 -23
-13 -23 -16 0 -36 -47 -38 -90 -3 -119 -1 -144 9 -148 7 -2 12 -12 12 -23 0
-25 72 -97 116 -115 92 -38 194 15 194 101 0 39 -44 65 -110 65 -52 0 -60 3
-76 28 -45 65 -48 178 -7 225 66 75 138 129 185 137 42 8 57 -3 62 -42 4 -33
27 -100 42 -123 8 -11 14 -39 14 -62 0 -24 9 -58 20 -78 11 -19 18 -35 16 -35
-2 0 3 -26 11 -57 8 -32 17 -70 20 -85 3 -16 9 -28 13 -28 5 0 12 -15 16 -32
4 -18 8 -35 9 -38 1 -3 5 -18 9 -35 4 -16 10 -37 13 -45 4 -8 8 -26 10 -40 2
-14 8 -29 14 -35 5 -5 9 -19 9 -31 0 -13 5 -26 11 -30 6 -3 8 -17 5 -30 -4
-16 -2 -26 8 -30 20 -8 8 -40 -25 -68 -16 -14 -55 -34 -86 -46 -32 -12 -66
-31 -76 -43 -14 -17 -17 -18 -13 -4 4 14 -1 17 -37 17 -76 0 -222 27 -264 49
-23 11 -49 21 -58 21 -8 0 -25 11 -37 25 -12 14 -30 25 -40 25 -10 0 -18 6
-18 13 0 18 -48 59 -60 52 -6 -4 -10 2 -10 13 0 10 -10 27 -21 38 -12 10 -30
37 -41 59 -10 22 -27 54 -38 70 -10 17 -19 40 -19 52 -1 12 -5 24 -10 28 -9 5
-18 46 -27 120 -1 11 -3 20 -4 20 -2 0 -12 70 -12 90 1 256 85 523 207 653 22
24 44 50 49 59 13 23 207 163 226 163 9 0 17 -6 18 -12z m2569 -118 c3 -11 10
-20 15 -20 5 0 7 -13 3 -28 -3 -16 -1 -41 4 -55 8 -22 8 -27 -4 -27 -9 0 -12
-6 -8 -17 10 -29 -33 28 -58 77 -38 73 -36 90 13 90 21 0 31 -6 35 -20z
m-2244 -55 c39 -6 44 -17 28 -57 -21 -53 -25 -64 -25 -79 -1 -8 -13 -29 -28
-47 -21 -25 -34 -32 -63 -32 -36 0 -36 0 -34 38 2 21 0 43 -4 49 -4 6 0 24 8
39 18 35 19 54 3 54 -7 1 1 12 17 25 17 14 37 23 45 21 8 -2 32 -7 53 -11z
m-147 -20 c14 -22 15 -30 4 -49 -7 -13 -10 -28 -6 -34 3 -5 -1 -18 -9 -28 -7
-10 -11 -29 -8 -41 3 -13 1 -23 -5 -23 -6 0 -19 27 -28 60 -9 33 -22 65 -30
71 -7 6 -11 17 -8 25 2 8 6 21 9 29 8 26 62 19 81 -10z m294 -21 c71 -23 78
-35 50 -90 -13 -25 -34 -56 -47 -70 -13 -14 -23 -31 -23 -38 0 -11 -11 -10
-57 4 -31 10 -59 22 -61 28 -2 6 5 30 16 54 10 24 22 56 26 73 8 33 23 55 38
55 5 0 31 -7 58 -16z m181 -113 c30 -30 35 -40 28 -59 -5 -12 -19 -26 -33 -32
-13 -5 -28 -15 -33 -23 -4 -8 -22 -19 -40 -25 -25 -8 -34 -8 -44 4 -6 8 -17
14 -25 14 -26 0 -25 22 5 70 17 28 31 53 31 57 0 3 8 15 17 25 22 24 48 16 94
-31z m1918 -38 c22 -19 35 -90 21 -112 -8 -15 -36 7 -77 63 -28 36 -29 53 -5
59 32 9 40 7 61 -10z m-2335 -52 c3 -5 15 -7 27 -4 25 7 116 -12 183 -38 27
-10 54 -19 61 -19 18 0 115 -93 115 -111 0 -9 9 -24 19 -33 11 -10 28 -38 38
-62 10 -24 22 -44 26 -44 5 0 6 -3 4 -7 -3 -5 -1 -33 4 -63 13 -71 11 -213 -3
-250 -3 -8 -11 -35 -19 -60 -7 -25 -16 -49 -20 -55 -4 -5 -10 -28 -14 -50 -11
-58 -135 -265 -159 -265 -31 0 -23 39 16 86 97 117 147 274 143 444 -4 121
-10 167 -25 185 -6 7 -10 17 -8 21 5 19 -56 118 -94 155 -83 79 -177 113 -325
118 -33 1 -60 31 -48 51 8 13 72 13 79 1z m524 -54 c18 -35 32 -68 32 -74 0
-10 -89 -43 -115 -43 -20 0 -65 59 -65 84 0 25 74 96 100 96 10 0 29 -25 48
-63z m3046 -12 c3 -8 3 -21 0 -29 -3 -8 -1 -16 4 -19 4 -4 7 -22 6 -41 -2 -20
1 -36 7 -36 6 0 8 -4 4 -10 -3 -5 3 -18 14 -29 12 -12 17 -27 14 -41 -6 -21
25 -90 39 -90 15 0 8 -39 -8 -48 -9 -5 -15 -13 -14 -18 3 -23 -30 -12 -51 16
-13 17 -33 42 -44 54 -35 40 -40 211 -7 272 6 12 8 24 5 28 -3 3 1 6 9 6 9 0
18 -7 22 -15z m-2036 -64 c61 -58 62 -60 56 -103 -3 -23 -7 -55 -9 -71 -2 -15
-10 -38 -19 -52 -9 -13 -16 -30 -16 -37 0 -27 -21 -88 -30 -88 -6 0 -10 6 -10
13 0 18 -41 115 -73 171 -18 32 -26 59 -24 80 6 49 41 146 53 146 6 0 38 -27
72 -59z m-1483 34 c33 -7 77 -18 97 -25 41 -12 138 -84 138 -102 0 -6 9 -18
20 -28 11 -9 21 -31 23 -48 2 -17 8 -37 14 -44 6 -7 14 -28 18 -45 3 -18 10
-33 14 -33 8 0 6 -189 -3 -197 -3 -3 -1 -14 5 -25 7 -14 7 -23 -1 -33 -6 -7
-18 -42 -26 -77 -19 -80 -57 -157 -94 -193 l-28 -27 -13 23 c-7 13 -14 31 -15
39 -2 15 -26 88 -75 223 -16 43 -29 86 -29 96 0 9 -5 22 -11 28 -5 5 -17 39
-24 74 -18 78 -53 193 -71 234 -12 27 -19 52 -28 96 -2 8 -7 23 -11 33 -6 13
-3 23 10 32 22 17 16 17 90 -1z m2321 -80 c8 -7 14 -20 14 -29 0 -8 5 -18 10
-21 6 -3 10 -19 10 -36 0 -16 5 -29 12 -29 9 0 9 -3 1 -11 -9 -9 -16 -8 -28 4
-9 9 -21 20 -28 24 -30 20 -79 83 -74 96 7 18 66 20 83 2z m-1791 -31 c8 -20
15 -45 15 -55 0 -11 5 -19 12 -19 6 0 3 -8 -7 -20 -13 -14 -28 -19 -56 -17
-46 3 -53 9 -69 61 -12 37 -11 40 11 57 13 10 35 20 49 22 14 2 26 5 27 6 2 0
10 -15 18 -35z m836 -121 c38 -62 50 -94 60 -163 11 -78 11 -77 4 -115 -9 -55
-21 -89 -32 -92 -17 -6 -35 34 -34 76 0 34 -5 69 -30 199 -9 44 -5 132 6 132
2 0 13 -17 26 -37z m2080 -5 c1 -7 2 -18 3 -25 0 -6 29 -39 64 -72 34 -34 62
-70 62 -80 0 -10 -7 -37 -15 -60 -8 -23 -16 -57 -18 -74 -3 -18 -8 -40 -12
-49 -9 -22 -27 -24 -19 -3 4 8 1 15 -6 15 -7 0 -10 8 -7 19 3 11 -3 28 -14 40
-19 20 -19 20 1 31 28 15 26 40 -3 40 -25 0 -92 45 -101 68 -3 7 -1 22 4 33 8
13 7 19 0 19 -6 0 -4 7 4 16 9 8 17 21 18 27 0 7 2 17 3 22 2 6 3 18 4 28 1
19 30 24 32 5z m-2870 -65 c-1 -64 -14 -107 -32 -111 -8 -1 -31 4 -51 12 -35
15 -36 17 -32 62 4 53 24 81 68 93 41 11 49 2 47 -56z m-1015 -28 c8 -47 24
-81 54 -113 19 -20 28 -22 61 -17 56 10 99 -2 99 -26 0 -27 -19 -61 -30 -54
-5 3 -11 -4 -15 -15 -7 -21 -58 -29 -70 -10 -3 6 -12 10 -20 10 -18 0 -84 42
-85 54 0 6 -10 20 -22 33 -19 21 -22 34 -21 99 1 111 33 137 49 39z m1741 -59
c-3 -7 0 -24 7 -38 7 -13 11 -43 9 -67 -2 -25 2 -50 9 -59 10 -11 10 -16 1
-19 -13 -5 -8 -80 7 -98 6 -7 5 -18 -5 -31 -7 -11 -10 -26 -6 -32 4 -7 6 -28
5 -47 -2 -19 1 -37 5 -40 5 -2 3 -20 -3 -40 -15 -42 -26 -55 -26 -29 0 96 -12
218 -25 259 -26 83 -29 143 -9 202 10 29 22 53 27 53 5 0 7 -6 4 -14z m-754
-66 c9 -8 1 -68 -12 -88 -5 -8 -16 -7 -43 5 -31 14 -37 22 -40 55 -2 22 -1 41
1 44 7 7 84 -6 94 -16z m70 5 c-3 -9 1 -23 9 -33 18 -21 44 -84 40 -96 -2 -5
3 -33 9 -63 14 -59 4 -105 -30 -144 -9 -11 -17 -24 -17 -29 -1 -6 -2 -14 -3
-18 0 -5 -29 -32 -63 -61 -35 -28 -73 -60 -84 -70 -28 -23 -174 -95 -180 -88
-3 3 16 22 42 43 26 21 72 77 103 124 76 116 117 219 152 388 7 34 17 62 21
62 4 0 5 -7 1 -15z m2782 -7 c14 -6 25 -14 25 -18 0 -4 8 -25 17 -46 9 -22 16
-42 15 -45 0 -4 7 -28 17 -54 14 -38 16 -57 9 -99 -10 -56 -38 -99 -38 -58 0
12 -4 22 -9 22 -5 0 -12 17 -15 38 -4 20 -17 57 -28 82 -43 90 -52 129 -38
164 11 30 11 30 45 14z m-2154 -120 c1 -7 1 -19 0 -25 -1 -7 4 -32 10 -55 7
-24 13 -64 14 -89 1 -26 5 -51 9 -58 4 -6 3 -11 -2 -11 -4 0 -5 -24 -2 -52 4
-29 5 -58 3 -64 -2 -6 -5 -46 -7 -90 -2 -43 -10 -95 -16 -114 -22 -59 -23 -65
-21 -74 1 -4 -4 -18 -12 -30 -8 -11 -20 -46 -27 -76 -7 -30 -21 -74 -31 -98
-10 -23 -18 -43 -18 -45 3 -13 -26 -97 -33 -97 -6 0 -8 -9 -5 -20 3 -10 -1
-24 -9 -31 -11 -9 -14 -8 -14 5 0 10 5 26 10 37 8 13 7 19 0 19 -11 0 -3 47
12 66 4 6 7 33 6 60 -1 27 1 58 4 69 4 11 9 49 13 84 3 35 8 67 10 71 2 4 6
87 9 186 5 181 8 213 24 249 9 19 30 93 36 125 7 39 19 70 27 70 5 0 10 -6 10
-12z m-746 -9 c30 -11 31 -13 21 -44 -6 -17 -18 -42 -27 -55 -14 -21 -17 -22
-44 -9 -36 17 -40 34 -20 82 17 40 23 43 70 26z m2840 2 c-3 -5 -1 -12 5 -16
5 -3 10 -14 10 -24 0 -10 6 -24 14 -30 8 -7 18 -27 22 -44 3 -18 11 -35 17
-38 5 -4 11 -18 12 -32 2 -14 5 -30 8 -34 11 -17 -11 -35 -43 -36 -31 -2 -33
1 -49 51 -9 30 -19 51 -22 48 -4 -4 -4 4 -2 17 3 14 0 28 -6 31 -6 4 -11 14
-11 23 0 23 32 93 43 93 4 0 6 -4 2 -9z m-2875 -166 c0 -23 -63 -114 -79 -114
-8 -1 -22 6 -31 14 -16 15 -16 19 8 65 24 47 28 50 64 50 27 0 38 -4 38 -15z
m247 -12 c-4 -3 -2 -12 4 -20 6 -7 8 -13 4 -13 -4 0 -3 -6 2 -12 6 -7 20 -47
33 -89 l22 -76 -27 -42 c-15 -22 -31 -41 -34 -41 -4 0 -16 -8 -27 -17 -30 -27
-159 -93 -180 -93 -10 0 -41 -11 -69 -24 -104 -50 -147 -56 -162 -24 -34 73
-34 78 -9 101 13 12 46 30 72 41 74 28 219 128 218 149 -1 11 5 17 18 17 21 0
56 38 100 107 15 24 31 43 34 43 4 0 4 -3 1 -7z m2592 -39 c7 -26 10 -48 8
-50 -1 -2 -19 -5 -38 -6 -31 -3 -34 -1 -31 22 5 37 25 80 38 80 7 0 17 -21 23
-46z m-512 -31 c11 -10 22 -32 26 -49 5 -26 2 -33 -19 -42 -16 -8 -24 -8 -24
-1 0 6 -9 8 -20 4 -12 -4 -20 -2 -20 5 0 6 -8 9 -18 6 -11 -4 -22 2 -30 15
-11 18 -11 24 4 40 10 11 31 23 48 28 17 5 31 10 32 10 1 1 10 -7 21 -16z
m-2440 -62 l24 -20 -23 -20 c-86 -73 -123 -100 -130 -93 -5 5 -3 19 4 33 20
38 82 118 91 119 5 0 20 -9 34 -19z m3077 -6 c-9 -14 -14 -31 -11 -39 3 -8 -1
-22 -8 -33 -8 -10 -15 -26 -15 -35 0 -26 -16 -30 -62 -16 -50 15 -108 70 -108
102 0 20 7 24 53 32 28 5 78 10 110 12 l58 2 -17 -25z m-1183 -6 c16 -11 29
-24 29 -28 0 -5 16 -26 35 -47 42 -46 43 -54 8 -54 -22 0 -25 -2 -13 -10 12
-8 9 -10 -11 -10 -27 0 -39 15 -39 51 0 10 -4 19 -8 19 -5 0 -15 23 -24 50 -9
28 -14 50 -11 50 3 0 18 -9 34 -21z m996 -101 c15 -6 34 -10 42 -9 7 1 10 -2
6 -8 -3 -6 14 -20 40 -33 33 -16 44 -27 39 -38 -3 -8 -8 -26 -10 -39 -7 -33
-23 -61 -35 -61 -20 0 -85 53 -112 91 -33 46 -37 109 -6 109 4 0 20 -5 36 -12z
m-2123 -103 c-3 -27 -9 -59 -11 -70 -3 -11 -6 -51 -7 -90 -4 -106 -8 -114 -59
-107 -48 6 -76 27 -61 47 34 46 43 65 48 100 4 34 22 89 49 155 4 8 12 29 18
45 l12 30 8 -30 c5 -16 7 -52 3 -80z m1479 76 c9 0 17 -8 17 -16 0 -8 4 -15 9
-15 5 0 22 -5 38 -11 15 -6 28 -9 28 -8 0 1 19 -10 43 -25 34 -21 46 -24 62
-16 16 9 20 8 20 -5 0 -8 6 -15 13 -15 36 0 85 -22 90 -40 6 -25 -7 -25 -81
-4 -82 24 -262 12 -312 -20 -19 -13 -52 -29 -72 -36 -24 -9 -38 -20 -38 -31 0
-21 -26 -43 -43 -36 -13 5 -22 25 -69 161 -24 70 -21 74 66 100 77 23 106 25
229 17z m-1854 -47 c-22 -24 -69 -54 -84 -54 -4 0 8 12 27 27 18 16 39 34 46
40 26 25 35 13 11 -13z m72 -31 c6 -21 10 -45 11 -53 0 -8 7 -33 15 -56 8 -22
13 -45 11 -51 -2 -7 6 -18 17 -27 28 -20 9 -36 -43 -39 -23 -1 -42 -4 -42 -8
0 -6 51 -13 150 -22 14 -1 30 -5 35 -8 6 -4 21 -9 35 -12 26 -7 60 -56 60 -87
0 -9 -7 -23 -15 -30 -12 -10 -22 -8 -52 11 -21 12 -45 28 -53 34 -13 10 -42
12 -84 6 -17 -2 4 -15 31 -19 14 -2 35 -10 47 -18 11 -8 27 -14 36 -14 8 0 26
-16 38 -35 26 -37 27 -89 3 -133 -7 -13 -14 -33 -16 -45 -4 -22 -39 -108 -56
-137 -5 -8 -23 -44 -40 -80 -17 -36 -46 -83 -63 -105 -17 -22 -44 -60 -60 -83
-32 -52 -136 -153 -148 -146 -4 3 -8 16 -8 29 0 16 20 43 60 82 33 32 68 66
78 75 9 10 29 30 45 45 15 14 27 32 27 38 0 7 7 18 15 25 8 7 29 38 47 69 25
43 33 71 36 121 6 103 3 127 -19 167 -31 57 -39 63 -71 63 -29 0 -87 -25 -89
-38 -1 -8 -6 -37 -13 -74 -3 -15 -1 -30 5 -34 15 -9 22 2 22 37 0 21 9 37 30
55 40 34 66 28 93 -23 27 -51 27 -150 1 -200 -10 -18 -14 -33 -11 -33 4 0 -1
-8 -10 -19 -9 -10 -16 -23 -14 -27 4 -14 -85 -133 -99 -133 -7 -1 -13 -8 -13
-16 0 -8 -20 -28 -44 -44 l-44 -30 27 52 c54 106 67 154 76 286 5 66 4 82 -7
79 -8 -3 -13 -22 -14 -49 0 -24 -3 -51 -6 -59 -4 -8 -10 -35 -16 -60 l-10 -45
-1 37 c0 20 -5 40 -11 43 -5 3 -10 15 -10 26 0 34 -46 71 -83 67 -26 -2 -38
-12 -63 -51 -22 -33 -30 -55 -26 -75 4 -26 4 -26 -12 -7 -9 11 -25 47 -35 80
-11 33 -29 84 -40 113 l-19 53 48 49 c27 26 78 63 113 80 59 29 184 59 250 60
18 0 26 4 21 11 -12 20 -223 -16 -271 -47 -12 -8 -27 -14 -32 -14 -15 0 -71
-41 -111 -80 l-35 -35 -3 31 c-6 56 76 119 252 193 27 12 57 21 67 21 23 0 69
21 69 32 0 11 -4 11 -79 -8 -36 -9 -96 -32 -132 -50 -37 -19 -71 -34 -77 -34
-6 0 -17 -8 -24 -17 -16 -21 -73 -63 -87 -63 -11 0 -39 70 -47 117 -3 20 -10
47 -14 59 -11 28 -9 29 64 48 54 14 138 48 221 88 76 37 153 87 179 117 23 25
25 24 37 -26z m2386 -26 c16 -19 50 -48 76 -66 46 -31 58 -53 36 -67 -6 -3 -9
-14 -6 -24 3 -11 -2 -28 -10 -40 l-15 -22 -29 28 c-22 21 -32 25 -41 16 -14
-14 6 -42 32 -42 10 0 20 -8 23 -19 6 -24 -19 -81 -36 -81 -7 0 -29 27 -48 61
-19 33 -42 69 -52 79 -14 14 -17 26 -12 49 4 17 10 31 15 31 4 0 22 -16 40
-36 19 -23 35 -33 41 -27 6 6 2 17 -10 30 -33 35 -58 98 -53 132 5 39 13 39
49 -2z m-2637 -47 c-20 -13 -33 -13 -25 0 3 6 14 10 23 10 15 0 15 -2 2 -10z
m2072 -32 c-9 -9 -15 -9 -24 0 -9 9 -7 12 12 12 19 0 21 -3 12 -12z m-2157 -8
c-3 -5 -16 -10 -28 -10 -18 0 -19 2 -7 10 20 13 43 13 35 0z m2308 -6 c104 -8
117 -13 185 -77 35 -32 59 -47 71 -44 25 6 51 -10 65 -42 6 -14 25 -51 41 -81
16 -30 28 -65 26 -77 -1 -11 3 -24 9 -28 8 -5 7 -12 -5 -25 -15 -16 -14 -18 6
-23 24 -6 23 -22 -10 -112 -37 -99 -44 -121 -56 -175 -7 -30 -17 -64 -21 -75
-17 -39 -59 -94 -76 -98 -9 -3 -18 -15 -20 -28 -2 -14 -11 -25 -23 -28 -11 -2
-24 -10 -30 -17 -5 -8 -37 -27 -69 -44 -43 -21 -55 -31 -43 -36 22 -8 118 40
161 82 39 38 60 44 52 14 -3 -11 -9 -30 -12 -42 -4 -13 -12 -30 -19 -38 -8 -8
-13 -19 -12 -25 1 -5 -9 -12 -22 -13 -14 -2 -35 -11 -48 -19 -40 -26 -216 -2
-198 27 3 5 19 7 35 3 23 -4 30 -2 30 9 0 11 -11 15 -37 15 -45 -1 -98 22 -98
43 0 11 16 16 60 20 33 3 67 9 75 15 8 5 22 10 31 10 18 2 88 55 164 127 41
38 53 58 68 110 23 79 31 164 17 173 -6 4 -8 15 -5 25 12 36 -66 180 -98 180
-4 0 -18 9 -30 21 -20 18 -30 20 -103 15 -77 -5 -154 -29 -154 -48 0 -5 -4 -7
-9 -4 -10 7 -34 -19 -53 -59 -19 -37 -21 -94 -5 -114 9 -12 9 -13 0 -7 -9 5
-13 -1 -13 -18 0 -16 6 -26 15 -26 8 0 12 -6 9 -14 -7 -18 24 -73 45 -82 46
-19 86 -22 112 -9 46 24 50 57 13 100 -14 17 -30 37 -34 45 -5 8 -11 12 -14 9
-4 -3 2 -17 12 -30 28 -35 36 -67 22 -84 -14 -17 -56 -20 -65 -4 -4 5 -12 8
-18 6 -7 -2 -23 15 -38 37 -28 45 -37 123 -20 168 13 34 61 83 88 90 20 5 19
3 -8 -35 -16 -22 -29 -49 -29 -59 0 -23 27 -78 39 -78 17 0 18 13 4 39 -14 24
-14 31 -2 56 22 46 71 66 149 59 114 -10 141 -35 165 -151 4 -18 10 -33 15
-33 9 0 -12 -119 -25 -140 -5 -8 -10 -20 -11 -26 -5 -30 -60 -107 -97 -136
-23 -18 -44 -35 -47 -38 -3 -3 -32 -20 -66 -37 -52 -26 -68 -30 -115 -25 -30
2 -59 9 -65 13 -6 5 -19 35 -29 67 -10 31 -21 62 -25 67 -4 6 -11 26 -15 45
-4 19 -24 78 -45 130 -20 52 -42 117 -49 145 -7 27 -16 54 -20 60 -5 5 -11 23
-15 39 -4 15 -15 47 -26 70 -34 76 -34 84 0 135 52 75 156 131 246 131 24 0
44 5 44 11 0 5 5 7 11 4 6 -4 34 -9 62 -11z m-276 -30 c-3 -3 -12 -4 -19 -1
-8 3 -5 6 6 6 11 1 17 -2 13 -5z m-1257 -54 c0 -5 -5 -10 -11 -10 -5 0 -7 5
-4 10 3 6 8 10 11 10 2 0 4 -4 4 -10z m1927 -137 c3 -7 -4 -9 -16 -6 -12 3
-18 9 -15 15 7 11 26 6 31 -9z m83 -15 c-1 -17 -28 -53 -35 -46 -8 8 13 58 25
58 5 0 10 -6 10 -12z m-2186 -209 c-8 -16 -13 -29 -10 -29 3 0 -5 -41 -20 -95
-3 -11 -8 -31 -11 -45 -3 -14 -12 -33 -20 -42 -8 -9 -12 -21 -9 -27 4 -6 2
-18 -3 -28 -8 -16 -14 -36 -22 -78 -1 -5 -11 -35 -21 -65 -11 -30 -21 -64 -23
-75 -2 -11 -9 -33 -16 -50 -7 -16 -13 -33 -13 -37 -1 -3 -4 -10 -8 -14 -5 -4
-8 -18 -8 -32 0 -14 -14 -38 -34 -58 -32 -32 -38 -34 -99 -34 -61 0 -67 2 -91
31 -33 39 -33 54 3 75 15 9 35 28 44 43 9 14 37 49 63 76 26 28 54 61 62 75 9
14 32 47 51 73 20 27 36 51 36 55 0 4 17 41 37 82 47 96 78 169 76 178 -4 17
26 60 38 55 11 -4 11 -10 -2 -34z m-421 -162 c18 -35 19 -44 7 -95 -13 -62
-36 -112 -49 -112 -5 0 -11 -9 -14 -21 -3 -13 -12 -19 -22 -17 -14 2 -17 21
-21 119 -4 107 -2 119 17 143 29 37 57 30 82 -17z m-3 -317 c0 -5 -5 -10 -11
-10 -5 0 -7 5 -4 10 3 6 8 10 11 10 2 0 4 -4 4 -10z m2340 -166 c0 -23 -41
-63 -78 -75 -75 -25 -176 0 -188 47 -8 33 -1 39 33 25 30 -12 133 -8 159 7 22
12 74 9 74 -4z"/>
<path d="M3147 4583 c-9 -2 -15 -9 -12 -14 4 -5 -3 -9 -13 -9 -27 0 -40 -19
-48 -68 -6 -37 -4 -42 12 -42 11 0 29 -6 40 -14 12 -9 26 -11 34 -6 11 7 8 11
-13 21 -22 10 -27 19 -27 46 0 23 6 36 18 40 22 9 42 29 42 42 0 11 -3 12 -33
4z"/>
<path d="M3190 4559 c0 -6 7 -17 15 -25 8 -9 15 -25 15 -38 0 -22 17 -46 32
-46 4 0 8 18 8 39 0 40 -23 76 -41 66 -5 -4 -9 -1 -9 4 0 6 -4 11 -10 11 -5 0
-10 -5 -10 -11z"/>
<path d="M3570 2908 c1 -7 16 -23 35 -35 29 -18 36 -19 46 -7 9 11 8 14 -2 14
-8 0 -25 9 -39 20 -29 23 -40 25 -40 8z"/>
<path d="M1196 4064 c-20 -19 -20 -28 -2 -43 17 -14 65 -4 73 15 7 19 -15 44
-38 44 -9 0 -25 -7 -33 -16z"/>
<path d="M1966 3392 c-8 -13 36 -24 48 -12 7 7 6 10 -1 10 -6 0 -18 3 -26 6
-8 3 -18 1 -21 -4z"/>
<path d="M2050 3361 c13 -11 29 -17 34 -14 11 8 -22 33 -43 33 -11 0 -9 -6 9
-19z"/>
<path d="M2146 3284 c56 -57 79 -67 49 -21 -15 24 -83 77 -98 77 -4 0 18 -25
49 -56z"/>
<path d="M4760 2805 c0 -9 6 -12 15 -9 8 4 12 10 9 15 -8 14 -24 10 -24 -6z"/>
<path d="M4030 4513 c-19 -9 -42 -17 -50 -18 -14 -1 -49 -15 -120 -49 -28 -13
-40 -46 -17 -46 8 0 25 8 38 19 24 18 62 36 129 62 20 8 74 13 127 13 87 0
117 8 76 20 -54 15 -150 15 -183 -1z"/>
<path d="M4252 4488 c3 -7 15 -14 29 -16 13 -2 41 -17 61 -33 42 -33 58 -36
58 -13 0 10 -6 14 -15 10 -8 -3 -15 -1 -15 4 0 6 -7 10 -15 10 -8 0 -15 4 -15
8 0 11 -55 42 -75 42 -9 0 -15 -6 -13 -12z"/>
<path d="M4410 4400 c0 -5 5 -10 10 -10 6 0 10 -5 10 -11 0 -7 8 -19 18 -28 9
-9 25 -32 34 -51 19 -39 30 -147 16 -156 -5 -3 -7 -13 -4 -21 3 -8 -2 -25 -10
-39 -9 -13 -14 -27 -11 -31 4 -3 0 -15 -8 -27 -8 -11 -15 -28 -15 -36 0 -9
-20 -38 -45 -66 -24 -27 -44 -54 -45 -60 0 -17 -44 -54 -64 -54 -9 0 -31 -7
-48 -16 -36 -19 -142 -15 -193 7 -35 14 -32 13 -67 23 -16 5 -28 14 -28 21 0
7 -13 24 -28 37 -15 13 -28 32 -29 43 -1 11 -4 46 -7 78 -4 38 -1 72 9 100 17
49 18 57 6 57 -5 0 -18 -15 -29 -32 -16 -24 -18 -35 -9 -40 9 -6 9 -10 1 -15
-15 -11 -26 -73 -13 -73 6 0 6 -7 -1 -20 -6 -12 -7 -20 -1 -20 5 0 13 -15 17
-32 7 -34 50 -98 65 -98 4 0 20 -11 35 -25 15 -14 35 -26 45 -26 20 -2 37 -5
42 -9 14 -12 132 -14 182 -4 50 11 100 41 134 81 18 21 43 50 56 65 13 14 21
29 18 32 -3 3 4 18 16 34 12 17 21 36 21 44 0 8 4 18 8 23 16 18 32 92 32 146
0 72 -18 120 -66 174 -38 44 -54 55 -54 35z"/>
<path d="M4054 4277 c-9 -5 -21 -10 -27 -11 -27 -4 -57 -28 -57 -44 0 -14 -2
-14 -9 -3 -8 12 -12 13 -26 1 -29 -24 -36 -46 -14 -47 10 -1 19 5 19 13 0 8 6
14 13 14 7 0 29 12 50 26 52 35 143 38 205 5 50 -25 70 -19 32 9 -47 37 -151
57 -186 37z"/>
<path d="M4269 4210 c-1 -3 -3 -26 -4 -53 -3 -74 -52 -104 -143 -87 -31 5 -61
10 -68 10 -14 0 -25 -48 -12 -56 5 -3 3 -13 -4 -22 -10 -12 -10 -16 0 -19 6
-3 10 -9 6 -14 -3 -5 0 -9 6 -9 6 0 18 -7 26 -15 18 -17 50 -20 59 -5 3 6 -6
15 -20 20 -36 14 -55 34 -55 59 0 29 15 34 55 20 29 -11 43 -10 88 4 69 22 68
22 51 -13 -15 -29 -52 -61 -86 -73 -20 -7 -24 -27 -6 -27 22 0 99 52 109 73 5
12 16 33 24 47 21 36 18 100 -5 135 -11 17 -20 28 -21 25z"/>
<path d="M5295 2987 c-54 -17 -155 -68 -155 -79 0 -6 -17 -26 -38 -44 -22 -19
-46 -52 -56 -78 -10 -25 -21 -46 -25 -46 -5 0 -6 -11 -4 -24 3 -13 0 -33 -7
-45 -6 -12 -7 -27 -3 -34 8 -13 9 -18 11 -54 1 -13 8 -23 15 -23 10 0 14 19
14 74 1 57 7 86 27 129 29 60 100 147 121 147 7 0 32 11 56 24 49 28 166 40
229 24 19 -5 43 -11 54 -13 10 -2 25 -10 34 -17 93 -74 85 -64 148 -188 19
-36 34 -75 34 -87 0 -26 16 -39 23 -19 17 44 -43 182 -108 249 -52 52 -166
111 -202 104 -13 -2 -23 -1 -23 3 0 10 -77 7 -86 -3 -4 -4 -12 -3 -18 1 -6 5
-24 4 -41 -1z"/>
<path d="M5378 2679 c-72 -8 -128 -34 -128 -59 1 -8 9 -25 19 -38 17 -19 28
-22 84 -20 48 1 69 -3 81 -15 27 -27 19 -71 -23 -124 -30 -39 -37 -53 -29 -67
7 -13 17 -16 36 -11 43 10 100 52 118 86 25 49 5 164 -36 199 -11 9 -20 22
-20 28 0 21 -35 28 -102 21z m43 -21 c37 -13 68 -44 69 -69 0 -9 7 -20 16 -23
9 -4 14 -9 11 -12 -3 -3 -1 -19 3 -35 5 -17 5 -31 -1 -35 -5 -3 -7 -13 -5 -22
7 -22 -3 -36 -44 -67 -50 -37 -64 -32 -35 13 13 20 30 44 37 52 7 8 12 33 11
55 -3 50 -31 75 -83 75 -72 0 -113 30 -69 50 11 5 42 22 55 29 1 1 16 -4 35
-11z"/>
<path d="M5743 2531 c-3 -99 -7 -138 -16 -148 -4 -3 -7 -16 -7 -28 0 -12 -9
-30 -20 -40 -12 -10 -19 -24 -16 -30 2 -7 -6 -25 -20 -41 -13 -16 -23 -34 -24
-41 0 -15 -86 -88 -131 -112 -19 -10 -60 -32 -92 -49 -60 -33 -104 -47 -172
-57 -22 -4 -51 -8 -65 -11 -14 -2 -67 -7 -118 -10 -114 -9 -101 -25 14 -20 44
2 79 5 79 5 0 1 23 4 50 7 65 6 75 8 105 21 14 6 51 18 83 28 31 10 57 22 57
26 0 4 11 9 23 13 32 8 165 115 202 162 67 86 97 177 101 300 3 89 1 103 -14
106 -15 4 -17 -6 -19 -81z"/>
<path d="M5030 2540 c0 -5 5 -10 11 -10 5 0 7 5 4 10 -3 6 -8 10 -11 10 -2 0
-4 -4 -4 -10z"/>
<path d="M5047 2513 c-4 -3 -7 -13 -7 -20 0 -19 109 -133 127 -133 7 0 13 -4
13 -10 0 -5 6 -10 13 -10 6 0 25 -7 42 -16 45 -23 145 -16 145 11 0 18 -32 28
-41 13 -6 -9 -19 -9 -53 -1 -26 6 -49 6 -52 2 -3 -5 -10 -9 -15 -9 -6 0 -7 5
-4 10 4 6 -10 17 -31 26 -38 16 -73 50 -74 72 0 6 -4 12 -9 12 -5 0 -14 14
-21 30 -12 30 -21 36 -33 23z"/>
<path d="M2827 2503 c-4 -3 -7 -13 -7 -22 1 -13 3 -13 11 2 11 19 8 33 -4 20z"/>
<path d="M2749 2409 c-30 -34 -63 -70 -73 -80 -18 -17 -18 -19 -3 -19 9 0 17
3 17 8 0 4 27 36 60 71 52 55 70 81 56 81 -2 0 -28 -28 -57 -61z"/>
<path d="M2642 2280 c-7 -11 -8 -20 -3 -20 9 0 24 30 18 36 -1 2 -8 -6 -15
-16z"/>
<path d="M2572 2151 c-17 -39 -27 -69 -23 -67 13 8 62 117 59 128 -2 6 -18
-22 -36 -61z"/>
<path d="M5550 1762 c-30 -15 -73 -39 -95 -54 -22 -16 -49 -28 -60 -28 -12 0
-26 -5 -32 -11 -19 -19 -238 -29 -343 -16 -111 15 -140 21 -140 28 0 5 -8 9
-19 9 -10 0 -39 11 -65 25 -53 28 -75 33 -57 12 6 -8 9 -16 6 -19 -13 -13 166
-68 222 -68 16 0 33 -4 39 -10 12 -12 50 -13 219 -5 209 10 263 18 272 41 3 8
9 11 14 8 5 -2 36 8 69 23 56 26 60 30 58 58 -4 39 -20 40 -88 7z"/>
</g>
</svg>
